<?xml version="1.0" encoding="UTF-8" standalone="no"?>
<!-- Created with Inkscape (http://www.inkscape.org/) -->

<svg
   xmlns:dc="http://purl.org/dc/elements/1.1/"
   xmlns:cc="http://creativecommons.org/ns#"
   xmlns:rdf="http://www.w3.org/1999/02/22-rdf-syntax-ns#"
   xmlns:svg="http://www.w3.org/2000/svg"
   xmlns="http://www.w3.org/2000/svg"
   xmlns:sodipodi="http://sodipodi.sourceforge.net/DTD/sodipodi-0.dtd"
   xmlns:inkscape="http://www.inkscape.org/namespaces/inkscape"
   width="512"
   height="512"
   id="svg2"
   version="1.1"
   inkscape:version="0.48.4 r9939"
   sodipodi:docname="New document 1">
  <defs
     id="defs4">
    <filter
       inkscape:collect="always"
       id="filter3921"
       x="-0.14363247"
       width="1.2872649"
       y="-0.072092236"
       height="1.1441845">
      <feGaussianBlur
         inkscape:collect="always"
         stdDeviation="3.5445268"
         id="feGaussianBlur3923" />
    </filter>
    <filter
       inkscape:collect="always"
       id="filter3953"
       x="-0.076499265"
       width="1.1529985"
       y="-0.12884419"
       height="1.2576884">
      <feGaussianBlur
         inkscape:collect="always"
         stdDeviation="6.3348248"
         id="feGaussianBlur3955" />
    </filter>
  </defs>
  <sodipodi:namedview
     id="base"
     pagecolor="#ffffff"
     bordercolor="#666666"
     borderopacity="1.0"
     inkscape:pageopacity="0.0"
     inkscape:pageshadow="2"
     inkscape:zoom="1"
     inkscape:cx="-74.307591"
     inkscape:cy="168.76724"
     inkscape:document-units="px"
     inkscape:current-layer="svg2"
     showgrid="false"
     showguides="true"
     inkscape:guide-bbox="true"
     inkscape:snap-global="true"
     inkscape:snap-bbox="true"
     inkscape:window-width="1920"
     inkscape:window-height="1030"
     inkscape:window-x="0"
     inkscape:window-y="27"
     inkscape:window-maximized="1">
    <inkscape:grid
       type="xygrid"
       id="grid2985"
       empspacing="8"
       visible="true"
       enabled="true"
       snapvisiblegridlinesonly="true"
       spacingx="2px"
       spacingy="2px" />
    <sodipodi:guide
       orientation="1,0"
       position="256,512"
       id="guide2987" />
    <sodipodi:guide
       orientation="0,1"
       position="256,256"
       id="guide2989" />
    <sodipodi:guide
       orientation="1,0"
       position="128,384"
       id="guide2991" />
    <sodipodi:guide
       orientation="0,1"
       position="110.80469,383.10156"
       id="guide2993" />
    <sodipodi:guide
       orientation="1,0"
       position="109.36719,383.11719"
       id="guide3788" />
    <sodipodi:guide
       orientation="1,0"
       position="146.63281,381.65625"
       id="guide3795" />
  </sodipodi:namedview>
  <metadata
     id="metadata7">
    <rdf:RDF>
      <cc:Work
         rdf:about="">
        <dc:format>image/svg+xml</dc:format>
        <dc:type
           rdf:resource="http://purl.org/dc/dcmitype/StillImage" />
        <dc:title></dc:title>
      </cc:Work>
    </rdf:RDF>
  </metadata>
  <g
     inkscape:label="Layer 1"
     inkscape:groupmode="layer"
     id="layer1"
     transform="translate(0,-540.36218)">
    <path
       id="path2997-2"
       style="fill:#ffffff;fill-opacity:1;stroke:#000000;stroke-width:2;stroke-linecap:butt;stroke-linejoin:round;stroke-miterlimit:4;stroke-opacity:1;stroke-dasharray:none"
       d="m 152.84269,712.73051 -4.658,0 -1.55266,1.55263 0,10.8684 -18.63203,6.21051 -18.63203,-6.21051 0,-10.8684 -1.55266,-1.55263 -4.658,0 C 96,700.36218 96,669.26062 109.36797,669.25691 l 0,-43.47357 12.42135,-12.42102 12.42136,0 12.42135,12.42102 0,43.47357 C 160,669.26062 160,700.36218 152.84269,712.73051 z"
       inkscape:connector-curvature="0"
       sodipodi:nodetypes="cccccccccccccccc" />
  </g>
  <g
     inkscape:groupmode="layer"
     id="layer2"
     inkscape:label="shadow" />
  <path
     id="path2997-2-8"
     style="fill:#ffffff;fill-opacity:1;stroke:#000000;stroke-width:2;stroke-linecap:butt;stroke-linejoin:round;stroke-miterlimit:4;stroke-opacity:1;stroke-dasharray:none"
     d="m 483.37075,166.15782 0,1.55263 -12.42134,10.8684 -55.89604,0 -6.21068,-6.21052 -4.658,0 -1.55266,1.55263 0,10.8684 -18.63203,6.21051 -18.63203,-6.21051 0,-10.8684 -1.55266,-1.55263 -4.658,0 -6.21067,6.21052 -55.89605,0 -12.42135,-10.8684 0,-1.55263 80.73873,-37.26309 0,-43.47357 12.42135,-12.42102 12.42136,0 12.42135,12.42102 0,43.47357 z"
     inkscape:connector-curvature="0"
     sodipodi:nodetypes="cccccccccccccccccccccccc" />
  <path
     id="path2997-2-7"
     style="fill:#9e0398;fill-opacity:1;stroke:#9e0398;stroke-width:8;stroke-linecap:butt;stroke-linejoin:round;stroke-miterlimit:4;stroke-opacity:1;stroke-dasharray:none;filter:url(#filter3921)"
     d="m 152.84269,428.36834 -4.658,0 -1.55266,1.55263 0,10.8684 -18.63203,6.21051 -18.63203,-6.21051 0,-10.8684 -1.55266,-1.55263 -4.658,0 c -7.157311,-12.36833 -7.157311,-43.46989 6.21066,-43.4736 l 0,-43.47357 12.42135,-12.42102 12.42136,0 12.42135,12.42102 0,43.47357 C 160,384.89874 160,416.00001 152.84269,428.36834 z"
     inkscape:connector-curvature="0"
     sodipodi:nodetypes="cccccccccccccccc" />
  <path
     id="path2997-2-8-8"
     style="fill:#9e0398;fill-opacity:1;stroke:#9e0398;stroke-width:8;stroke-linecap:butt;stroke-linejoin:round;stroke-miterlimit:4;stroke-opacity:1;stroke-dasharray:none;filter:url(#filter3953)"
     d="m 483.37075,422.15783 0,1.55263 -12.42134,10.8684 -55.89604,0 -6.21068,-6.21052 -4.658,0 -1.55266,1.55263 0,10.8684 -18.63203,6.21051 -18.63203,-6.21051 0,-10.8684 -1.55266,-1.55263 -4.658,0 -6.21067,6.21052 -55.89605,0 -12.42135,-10.8684 0,-1.55263 80.73873,-37.26309 0,-43.47357 12.42135,-12.42102 12.42136,0 12.42135,12.42102 0,43.47357 z"
     inkscape:connector-curvature="0"
     sodipodi:nodetypes="cccccccccccccccccccccccc" />
</svg>
